<svg width="512" height="85" viewBox="0 0 512 85" fill="none" xmlns="http://www.w3.org/2000/svg">
<path d="M22.0068 79.5095C15.1012 76.0154 9.71341 71.0951 5.84325 64.6772C1.97308 58.2594 0 50.8433 0 42.4288C0 34.0144 1.97308 26.5982 5.84325 20.1804C9.71341 13.7626 15.1012 8.84233 22.0068 5.27688C28.9124 1.78274 36.7286 0 45.4555 0C57.3695 0 67.3105 2.92369 75.1267 8.84233V17.6846C67.6899 11.4094 58.0525 8.27182 46.2143 8.27182C39.2329 8.27182 32.9343 9.69802 27.3947 12.4791C21.855 15.2601 17.5296 19.2534 14.4183 24.3877C11.307 29.5219 9.71339 35.5832 9.71339 42.4288C9.71339 49.3458 11.3069 55.3358 14.4941 60.47C17.6813 65.6042 22.0069 69.5976 27.5465 72.3786C33.0862 75.1597 39.3087 76.5859 46.2143 76.5859C52.3611 76.5859 57.9008 75.8014 62.7574 74.2326C67.6141 72.6638 72.0913 70.0967 76.265 66.5313V75.4449C68.9041 81.5775 58.6596 84.6438 45.4555 84.6438C36.6528 84.7864 28.8365 83.0036 22.0068 79.5095Z" fill="#0DFF7A"/>
<path d="M129.233 1.78271H138.264L172.792 83.0036H162.926L153.668 61.2544H113.828L104.646 83.0036H94.7811L129.233 1.78271ZM150.861 53.6243L133.71 12.2651L116.636 53.6243H150.861Z" fill="#0DFF7A"/>
<path d="M196.847 1.78271H206.485V75.3022H252.471V83.0036H196.847V1.78271Z" fill="#0DFF7A"/>
<path d="M273.643 1.78271H283.281V83.0036H273.643V1.78271Z" fill="#0DFF7A"/>
<path d="M366.3 1.78271H399.689C408.644 1.78271 415.474 3.77936 420.178 7.70135C424.807 11.6233 427.16 17.4707 427.16 25.2434C427.16 31.162 425.339 36.1537 421.62 40.2183C417.978 44.3542 412.893 46.9213 406.367 47.9909L426.856 82.9323H416.839L396.578 48.4188H375.937V82.9323H366.3V1.78271ZM398.399 40.86C404.318 40.86 409.023 39.5765 412.362 36.938C415.777 34.2996 417.446 30.4489 417.446 25.3147C417.446 19.61 415.777 15.5454 412.438 13.1209C409.099 10.6964 404.394 9.48408 398.399 9.48408H375.937V40.86H398.399Z" fill="#0DFF7A"/>
<path d="M451.216 1.78271H483.239C492.27 1.78271 499.403 3.77937 504.411 7.84398C509.496 11.8373 512 17.8272 512 25.7425C512 33.7291 509.496 39.7191 504.487 43.6411C499.479 47.5631 492.346 49.5597 483.239 49.5597H460.853V83.0036H451.216V1.78271ZM482.48 41.8584C488.627 41.8584 493.56 40.6461 497.05 38.2929C500.617 35.9397 502.362 31.7325 502.362 25.6712C502.362 19.5386 500.617 15.3314 497.05 12.9782C493.484 10.625 488.627 9.41278 482.48 9.41278H460.853V41.8584H482.48Z" fill="#0DFF7A"/>
</svg>
