<svg width="512" height="512" viewBox="0 0 512 512" fill="none" xmlns="http://www.w3.org/2000/svg">
<g clip-path="url(#clip0_203_2)">
<path d="M256.004 504.949C393.492 504.949 504.949 393.492 504.949 256.004C504.949 118.515 393.492 7.05829 256.004 7.05829C118.515 7.05829 7.05826 118.515 7.05826 256.004C7.05826 393.492 118.515 504.949 256.004 504.949Z" fill="#262B25"/>
<path d="M256.003 512C196.941 511.969 139.706 491.521 93.9944 454.121C48.2827 416.721 16.9054 364.668 5.17829 306.782C-6.54878 248.896 2.09555 188.736 29.6468 136.494C57.198 84.2513 101.962 43.1395 156.355 20.1233C211.067 -3.0324 272.129 -6.43774 329.076 10.4909C386.024 27.4196 435.31 63.6281 468.489 112.911C501.667 162.194 516.671 221.482 510.93 280.614C505.189 339.746 479.059 395.041 437.02 437.02C413.276 460.829 385.06 479.709 353.995 492.577C322.93 505.445 289.628 512.046 256.003 512V512ZM256.003 14.1167C122.623 14.1167 14.1165 122.624 14.1165 256.004C14.1165 389.384 122.623 497.884 256.003 497.884C389.384 497.884 497.883 389.377 497.883 256.004C497.883 122.631 389.377 14.1167 256.003 14.1167Z" fill="#0DFF7A"/>
<path d="M424.275 285.993C389.518 278.015 352.92 283.339 322.126 300.854C316.608 288.47 307.481 277.909 295.859 270.463C284.238 263.016 270.625 259.006 256.686 258.923C242.747 258.84 229.084 262.688 217.369 269.996C205.654 277.304 196.393 287.755 190.718 300.073C187.142 298.08 183.466 296.246 179.776 294.6C176.915 293.327 173.997 292.137 171.101 291.071C166.176 289.259 161.147 287.723 156.039 286.47C154.47 279.031 153.682 271.458 153.686 263.866C153.686 201.921 205.78 151.517 269.817 151.517C284.511 151.492 299.075 154.178 312.728 159.432L314.566 160.124L362.698 113.573L359.508 111.629C332.402 95.1235 301.216 85.9519 269.2 85.0702C237.184 84.1884 205.509 91.6287 177.475 106.616C149.442 121.603 126.076 143.589 109.811 170.282C93.5466 196.976 84.9786 227.4 85 258.386C85 271.684 85.9798 282.042 88.1754 291.95L88.3399 292.759C89.7759 299.826 91.6871 306.794 94.0614 313.62L97.6373 323.016V323.106C100.793 330.621 104.512 337.903 108.766 344.893L110.003 346.927L112.313 346.173C120.53 343.51 128.168 341.33 134.433 339.642C128.412 343.44 122.275 346.997 116.096 350.269L113.185 351.812L115.116 354.469C116.225 356.04 117.369 357.603 118.528 359.119C122.26 364.024 126.267 368.729 130.529 373.212L131.959 374.721L133.904 373.925C142.725 370.429 151.732 367.392 160.888 364.827C155.238 368.286 148.673 372.264 142.029 376.264L140.076 377.44L139.776 377.613L136.736 379.439L137.337 379.979L139.618 382.055C148.998 390.506 159.311 397.93 170.371 404.195L171.151 404.638H172.581L173.296 404.271L173.404 404.216L173.468 404.174L173.683 404.064L174.527 403.621C180.963 400.231 187.278 397.235 192.942 394.716C189.681 397.394 185.977 400.404 181.957 403.614L181.893 403.669L181.042 404.361L180.212 405.053L179.855 405.337L176.829 407.772L180.97 409.758C202.177 419.965 225.351 425.78 249.013 426.834L250.236 426.889L251.759 426.938C252.56 426.965 253.361 426.986 254.162 427H256.308H258.732H259.934H260.198H261.171L262.809 426.958H262.916C287.426 426.195 311.482 420.356 333.461 409.834L337.538 407.765L333.962 404.908C329.313 401.213 325.137 397.809 321.546 394.841C327.525 397.525 333.454 400.293 338.925 403.178C339.641 403.531 340.306 403.87 340.992 404.271L341.707 404.631H343.259L343.975 404.23C355.029 397.96 365.327 390.518 374.677 382.041L377.538 379.446L374.198 377.461C367.762 373.614 360.574 369.158 352.635 364.086C361.26 366.854 371.445 370.313 380.334 373.939L382.28 374.735L383.71 373.226C387.968 368.739 391.974 364.035 395.711 359.132C396.855 357.624 397.999 356.06 399.115 354.483L400.989 351.833L398.078 350.29C390.969 346.526 383.774 342.52 377.602 338.964C385.047 341.039 393.644 343.53 401.861 346.194L404.171 346.948L405.409 344.914C409.662 337.924 413.382 330.642 416.537 323.126L420.113 313.717L420.156 313.599C420.299 313.184 420.449 312.762 420.585 312.354C423.126 304.827 425.107 297.134 426.514 289.334L427 286.636L424.275 285.993ZM256.243 264.738C269.227 264.774 281.911 268.513 292.709 275.489C303.507 282.464 311.938 292.366 316.948 303.954L316.426 304.286L315.546 304.854L315.403 304.944L315.181 305.089L315.081 305.151C314.752 305.366 314.423 305.58 314.101 305.801L313.629 306.113C313.265 306.355 312.914 306.597 312.557 306.846C312.199 307.095 311.777 307.372 311.398 307.642C311.019 307.912 310.49 308.285 310.039 308.611L309.324 309.116L309.217 309.192L308.43 309.766L307.944 310.133C307.6 310.382 307.264 310.638 306.928 310.894C306.735 311.039 306.542 311.184 306.356 311.337C305.898 311.683 305.441 312.028 304.99 312.395L303.867 313.288L302.673 314.263L301.493 315.253L300.348 316.256L299.176 317.266L299.111 317.301L299.025 317.377C298.889 317.46 298.746 317.536 298.603 317.612L298.11 317.875L297.724 318.069L297.273 318.276C297.123 318.352 296.966 318.415 296.815 318.477L296.343 318.671C296.186 318.74 296.022 318.795 295.864 318.857C295.542 318.982 295.213 319.093 294.877 319.196L294.37 319.356C293.69 319.563 292.982 319.743 292.267 319.902C292.11 319.944 291.952 319.978 291.788 320.006C291.273 320.117 290.736 320.214 290.2 320.303L289.32 320.435H289.106H288.877L288.29 320.511H288.183L287.211 320.608L286.495 320.67C286.188 320.67 285.873 320.719 285.559 320.732C285.244 320.746 284.993 320.774 284.7 320.781H284.493H284.307C284.071 320.781 283.835 320.781 283.592 320.781H283.413H282.59C272.85 320.933 261.378 319.113 250.765 317.432L247.189 316.865L245.43 316.595L243.999 316.38L243.284 316.263C242.24 316.104 241.21 315.958 240.195 315.813C239.179 315.668 238.385 315.564 237.498 315.453L235.982 315.267L234.731 315.121L233.636 315.004L233.021 314.941L232.049 314.844L230.84 314.748H230.733L229.603 314.671C228.351 314.588 227.135 314.533 225.962 314.512H225.476C224.882 314.512 224.31 314.512 223.745 314.512H223.23H222.658H222.379H222.072C221.721 314.512 221.357 314.561 221.042 314.595L220.441 314.651L219.79 314.727L219.526 314.761L218.918 314.851L218.36 314.941L217.967 315.017H217.845C217.705 315.038 217.567 315.065 217.43 315.1H217.309L217.058 315.156C216.636 315.26 216.222 315.363 215.814 315.488L215.313 315.647C214.927 315.779 214.548 315.917 214.183 316.069L214.076 316.111L213.726 315.806C212.772 314.999 211.818 314.199 210.865 313.405C210.529 313.129 210.193 312.852 209.849 312.582L209.592 312.381L208.877 311.835C206.588 310.045 204.242 308.325 201.839 306.673L200.917 306.044C199.279 304.944 197.62 303.871 195.946 302.847C201.119 291.54 209.566 281.924 220.266 275.161C230.966 268.399 243.462 264.778 256.243 264.738ZM93.3462 285.259L92.9958 285.328C91.5644 276.416 90.9018 267.405 91.0147 258.386C91.0147 166.026 168.683 90.8794 264.153 90.8794C295.476 90.8522 326.217 99.065 353.086 114.639L313.093 153.329C294.601 146.541 274.682 144.2 255.049 146.508C235.415 148.815 216.655 155.703 200.381 166.577C184.108 177.451 170.808 191.987 161.626 208.934C152.445 225.881 147.656 244.732 147.671 263.866C147.67 270.97 148.325 278.06 149.631 285.052C149.517 285.052 149.409 285.01 149.295 284.989C148.959 284.927 148.63 284.858 148.294 284.803C147.958 284.747 147.836 284.713 147.578 284.678L146.606 284.498L145.726 284.353C145.345 284.284 144.966 284.221 144.589 284.166L144.174 284.097L142.958 283.91L142.243 283.813L141.027 283.647C139.883 283.488 138.732 283.35 137.58 283.225L135.849 283.052L134.305 282.907H134.026C133.597 282.865 133.16 282.831 132.731 282.803L132.173 282.761L131.086 282.672L130.171 282.616L129.456 282.575L128.397 282.526L127.332 282.485H126.831L125.701 282.45L123.977 282.416H123.927H121.989H120.001L118.285 282.45L116.904 282.499H116.382L114.952 282.561H114.566L113.386 282.63L112.399 282.672L111.562 282.727L110.668 282.789L109.452 282.893L108.851 282.948L107.585 283.073C107.335 283.073 107.085 283.114 106.87 283.149L105.933 283.246L104.875 283.37L103.917 283.488L103.437 283.55L102.007 283.744L100.205 284.014C98.4097 284.291 96.6289 284.602 94.8409 284.948L93.3462 285.259ZM254.105 421.126H253.068H252.145H251.659H251.18L249.47 421.057L247.94 420.987H247.697L246.095 420.891H245.995L244.364 420.78L242.362 420.621L241.646 420.559L240.316 420.427C240.001 420.427 239.687 420.372 239.372 420.337L238.5 420.247L236.161 419.977L234.959 419.825L233.844 419.68L232.671 419.514C231.891 419.403 231.119 419.285 230.346 419.161C229.574 419.036 228.709 418.898 227.893 418.76L227.114 418.621L225.869 418.4L225.269 418.282C224.275 418.102 223.28 417.902 222.286 417.694C221.528 417.542 220.763 417.376 220.005 417.21L217.96 416.739C217.638 416.663 217.323 416.594 217.008 416.511L215.807 416.22L213.332 415.584L213.168 415.542C212.538 415.369 211.909 415.203 211.28 415.023L210.951 414.823L209.599 414.435L208.254 414.034C207.382 413.778 206.524 413.515 205.666 413.238C205.444 413.176 205.236 413.107 205.022 413.031L202.79 412.304C202.318 412.145 201.839 411.986 201.36 411.813L199.808 411.273C198.654 410.872 197.493 410.441 196.325 409.979L195.453 409.647L194.738 409.371L194.022 409.087L192.413 408.437L192.163 408.333C191.627 408.118 191.097 407.89 190.568 407.641C190.253 407.516 189.939 407.378 189.631 407.24L187.765 406.423C198.893 397.491 207.289 390.337 210.15 387.894L211.23 386.981L229.216 373.143L208.154 382.069L207.711 382.242C195.458 386.929 183.499 392.305 171.895 398.342L170.214 397.352C169.613 397 169.012 396.661 168.412 396.266L167.081 395.45L165.515 394.46L165.086 394.184C164.585 393.865 164.085 393.54 163.591 393.208C163.098 392.876 162.597 392.516 162.104 392.219L160.302 390.98L158.871 389.97L157.934 389.278C157.269 388.794 156.597 388.309 155.939 387.818C155.281 387.327 154.809 386.974 154.251 386.545C153.836 386.234 153.429 385.916 153.021 385.597C152.944 385.541 152.87 385.481 152.799 385.417C152.563 385.244 152.327 385.058 152.084 384.871L151.984 384.795C151.541 384.449 151.097 384.103 150.647 383.729C150.196 383.356 149.703 382.968 149.216 382.581L148.651 382.117C148.236 381.771 147.822 381.425 147.407 381.065L146.971 380.699L146.577 380.36C159.701 372.458 172.267 364.744 177.881 361.291L180.741 359.534L200.702 348.117L178.417 354.227L177.952 354.338C170.042 356.213 150.31 361.167 133.511 367.788C129.935 363.92 126.509 359.859 123.334 355.68C122.862 355.071 122.397 354.448 121.903 353.819C131.838 348.393 141.431 342.403 150.632 335.878L151.383 335.345L171.759 325.071L149.166 330.011C147.4 330.398 131.844 333.851 112.692 339.932C109.099 333.823 105.924 327.492 103.187 320.982L99.7399 311.731C97.3938 304.973 95.5182 298.071 94.1258 291.071H94.2616L94.7122 290.981C95.0841 290.898 95.4632 290.829 95.835 290.76C96.4072 290.642 96.9793 290.531 97.5515 290.435C98.6958 290.227 99.8401 290.033 100.999 289.86C101.514 289.777 102.036 289.694 102.551 289.625H102.758L103.666 289.501L104.904 289.334H105.011L106.62 289.148L107.264 289.078L108.344 288.968L109.059 288.899L110.368 288.781L110.797 288.746C111.24 288.705 111.676 288.67 112.12 288.643L112.756 288.601L113.829 288.532L114.623 288.483L115.739 288.435L116.454 288.4L117.484 288.366H118.342C118.914 288.366 119.493 288.366 120.065 288.331H121.968C131.855 288.327 141.712 289.392 151.355 291.507L152.07 291.666L152.785 291.825H152.828L153.851 292.061C158.975 293.242 164.019 294.728 168.955 296.509C171.737 297.526 174.527 298.668 177.259 299.886C181.47 301.765 185.576 303.857 189.56 306.154L190.604 306.763C198.09 311.177 205.107 316.297 211.551 322.047C218.957 328.65 225.558 336.051 231.226 344.105C235.643 350.377 239.472 357.017 242.669 363.948C244.228 367.317 245.651 370.805 246.896 374.326C249.323 381.141 251.148 388.143 252.353 395.256C253.507 402.119 254.089 409.06 254.09 416.013L254.105 421.126ZM259.197 379.958L258.582 381.612L258.703 381.73L258.424 382.754C258.296 383.259 258.16 383.771 258.031 384.29C257.902 384.808 257.774 385.314 257.652 385.826L257.48 386.559C257.352 387.099 257.23 387.631 257.109 388.178C256.994 387.645 256.88 387.119 256.751 386.594C256.694 386.324 256.629 386.054 256.565 385.791C256.358 384.926 256.143 384.054 255.914 383.189C255.793 382.719 255.671 382.248 255.535 381.806C255.442 381.446 255.342 381.114 255.235 380.733C255.099 380.242 254.963 379.751 254.813 379.266C254.734 378.976 254.648 378.692 254.555 378.408C254.462 378.125 254.398 377.862 254.312 377.592C254.191 377.218 254.076 376.838 253.955 376.464C253.897 376.291 253.84 376.118 253.79 375.938L253.447 374.901L253.089 373.863C253.011 373.621 252.932 373.385 252.846 373.171C252.76 372.956 252.682 372.7 252.596 372.479C251.287 368.819 249.807 365.18 248.176 361.651C244.829 354.401 240.82 347.454 236.197 340.894C233.367 336.88 230.316 333.016 227.057 329.319C226.563 328.765 226.077 328.219 225.576 327.679C225.376 327.451 225.169 327.222 224.961 326.987C224.654 326.655 224.346 326.295 224.031 325.998L223.273 325.195C222.63 324.503 221.979 323.86 221.314 323.202C221.042 322.933 220.763 322.649 220.484 322.379C220.205 322.109 219.891 321.791 219.583 321.5L219.047 320.982L219.683 320.864L220.348 320.767L221.063 320.691L221.779 320.622H222.344H222.622C223.059 320.622 223.509 320.58 223.967 320.573H225.598H226.37H227.207C227.665 320.573 228.137 320.615 228.637 320.649L229.538 320.705C230.082 320.746 230.625 320.781 231.183 320.836L232.878 320.995L234.623 321.182L235.803 321.327L236.604 321.424L238.206 321.632L239.022 321.743C240.109 321.895 241.167 322.047 242.311 322.213L244.178 322.497L244.807 322.594L246.059 322.787L246.474 322.857L248.154 323.119L249.828 323.382L250.801 323.535L252.767 323.846C254.412 324.102 256.072 324.365 257.731 324.607L259.733 324.905L260.856 325.064L262.694 325.313C263.209 325.389 263.724 325.458 264.246 325.52L265.369 325.659L266.492 325.797L268.737 326.046C269.403 326.122 270.068 326.185 270.726 326.247L272.7 326.42L274.08 326.524L275.26 326.6C275.832 326.634 276.397 326.669 276.955 326.69L278.164 326.738C278.378 326.738 278.593 326.738 278.814 326.738H279.479H281.217C281.897 326.738 282.576 326.738 283.241 326.738H283.771C283.971 326.738 284.178 326.738 284.378 326.738H284.922C285.516 326.738 286.102 326.676 286.688 326.627L287.232 326.586L287.74 326.544H288.026L288.784 326.468L289.199 326.42L290 326.316C289.871 326.447 289.742 326.579 289.621 326.717L289.156 327.215L287.94 328.551L287.082 329.513L286.138 330.599L285.208 331.692C284.965 331.983 284.722 332.266 284.493 332.564L284.3 332.799C284.021 333.138 283.735 333.491 283.456 333.837C283.177 334.183 282.819 334.626 282.505 335.02C279.966 338.23 277.541 341.607 275.296 345.052C271.802 350.357 268.702 355.894 266.02 361.623C264.253 365.442 262.651 369.407 261.264 373.385C260.52 375.579 259.819 377.779 259.197 379.958ZM414.892 310.534C414.763 310.928 414.635 311.316 414.484 311.731L410.958 320.968C408.222 327.48 405.044 333.811 401.447 339.919C380.914 333.387 358.614 327.921 358.428 327.88L335.779 322.905L356.326 333.283H356.362L357.792 334.121C362.798 337.089 377.316 345.765 392.285 353.798L390.898 355.652C387.722 359.804 384.304 363.893 380.721 367.76C367.726 362.599 352.585 357.839 343.374 355.085L342.973 354.967L341.25 354.455C337.123 353.238 334.606 352.539 334.42 352.49L313.043 346.893L332.067 357.776L333.719 358.856L338.725 362.087L340.871 363.471L343.402 365.103C352.342 370.846 360.488 375.952 367.719 380.325C359.901 387.081 351.438 393.105 342.444 398.314L341.836 397.996C330.661 392.2 319.127 387.075 307.3 382.65L306.842 382.477L285.852 373.593L303.767 387.431L304.733 388.268C307.515 390.676 315.46 397.519 326.56 406.465C321.604 408.672 316.512 410.616 311.377 412.36C295.675 417.605 279.247 420.534 262.644 421.05H262.551L260.963 421.091H260.119V415.971C260.119 411.82 260.327 407.62 260.735 403.517C261.021 400.75 261.393 397.906 261.865 395.132C262.632 390.585 263.659 386.083 264.94 381.647L265.069 381.301V381.197L265.24 380.595C265.333 380.277 265.433 379.958 265.533 379.64C265.977 378.159 266.463 376.672 266.964 375.205C268.287 371.386 269.824 367.594 271.512 363.934C274.052 358.435 276.992 353.117 280.309 348.021C282.455 344.72 284.779 341.496 287.211 338.424C290.557 334.188 294.174 330.158 298.038 326.358C299.562 324.856 301.099 323.417 302.616 322.068H302.68L302.966 321.784C303.438 321.362 303.91 320.954 304.396 320.539L304.654 320.317C305.09 319.944 305.534 319.563 305.984 319.196L306.113 319.086L307.35 318.069L307.515 317.937L308.165 317.411L309.002 316.754L309.539 316.332L310.189 315.827L310.404 315.661L311.048 315.17L312.335 314.215L312.857 313.834C313.257 313.537 313.665 313.246 314.073 312.963L314.345 312.762C314.867 312.395 315.389 312.028 315.918 311.669C316.74 311.108 317.57 310.548 318.407 310.001L319.637 309.212L319.744 309.143L320.939 308.389L322.212 307.607L322.791 307.254L324.665 306.196C324.786 306.12 324.908 306.057 325.058 305.974C353.684 289.642 387.609 284.313 420.106 291.043C418.794 297.64 417.053 304.15 414.892 310.534Z" fill="#0DFF7A"/>
</g>
<defs>
<clipPath id="clip0_203_2">
<rect width="512" height="512" fill="white"/>
</clipPath>
</defs>
</svg>
